<?xml version="1.0" standalone="no"?>
<!DOCTYPE svg PUBLIC "-//W3C//DTD SVG 20010904//EN"
 "http://www.w3.org/TR/2001/REC-SVG-20010904/DTD/svg10.dtd">
<svg version="1.0" xmlns="http://www.w3.org/2000/svg"
 width="163.000000pt" height="163.000000pt" viewBox="0 0 163.000000 163.000000"
 preserveAspectRatio="xMidYMid meet">
<metadata>
Created by potrace 1.15, written by Peter Selinger 2001-2017
</metadata>
<g transform="translate(0.000000,163.000000) scale(0.100000,-0.100000)"
fill="#000000" stroke="none">
<path d="M750 1614 c-308 -37 -539 -203 -665 -477 -46 -101 -65 -196 -65 -324
0 -144 19 -228 79 -348 61 -122 134 -213 232 -287 158 -118 286 -162 479 -163
135 0 190 10 309 57 466 183 647 760 371 1181 -74 113 -190 215 -312 275 -57
28 -132 57 -168 66 -70 16 -204 26 -260 20z m490 -339 c17 -99 35 -198 40
-220 11 -46 91 -503 114 -645 9 -52 12 -98 7 -103 -4 -4 -43 -7 -87 -5 l-79 3
-12 70 c-16 93 -51 305 -71 438 -9 59 -19 107 -22 107 -3 0 -37 -71 -77 -157
-39 -87 -75 -159 -81 -161 -9 -3 -82 149 -82 172 0 12 61 150 229 515 70 152
81 174 86 169 2 -2 18 -84 35 -183z m-758 137 c9 -20 56 -129 106 -242 49
-113 99 -225 112 -250 13 -25 49 -106 80 -180 32 -74 73 -171 93 -216 l35 -81
-41 -91 c-22 -51 -43 -92 -47 -92 -3 0 -73 152 -154 338 -82 185 -176 397
-209 471 l-60 134 16 86 c21 108 36 161 45 161 4 0 14 -17 24 -38z m-59 -543
c26 -64 47 -129 47 -143 0 -14 -16 -115 -35 -223 -19 -108 -35 -198 -35 -200
0 -7 -169 -2 -173 5 -2 4 27 160 64 347 37 187 68 342 68 345 2 15 24 -29 64
-131z"/>
</g>
</svg>
