<svg id="Слой_1" data-name="Слой 1" xmlns="http://www.w3.org/2000/svg" viewBox="0 0 40 40"><defs><style>.cls-1{fill:#546480;}</style></defs><title>ico-pay-home</title><path class="cls-1" d="M39.16,18.46,20.81,2.55a1.24,1.24,0,0,0-1.6,0L12.66,8.21V5.92a2.45,2.45,0,1,0-4.9,0v6.54l-6.92,6a1.23,1.23,0,1,0,1.61,1.85L20,5.09,37.55,20.31a1.2,1.2,0,0,0,.8.3,1.25,1.25,0,0,0,.93-.42,1.24,1.24,0,0,0-.12-1.73Zm0,0"/><path class="cls-1" d="M21.55,11.37a2.46,2.46,0,0,0-3.09,0l-12.24,10a2.42,2.42,0,0,0-.9,1.89v12a2.44,2.44,0,0,0,2.44,2.45h7.35V25.51h9.79V37.75h7.34a2.45,2.45,0,0,0,2.45-2.45v-12a2.42,2.42,0,0,0-.9-1.89Zm0,0"/></svg>