<?xml version="1.0" encoding="utf-8"?>
<!-- Generator: Adobe Illustrator 21.0.0, SVG Export Plug-In . SVG Version: 6.00 Build 0)  -->
<svg version="1.1" id="Слой_1" xmlns="http://www.w3.org/2000/svg" xmlns:xlink="http://www.w3.org/1999/xlink" x="0px" y="0px"
	 viewBox="0 0 20 20" style="enable-background:new 0 0 20 20;" xml:space="preserve">
<style type="text/css">
	.st0{fill:#2E4161;}
</style>
<g>
	<g>
		<path class="st0" d="M15.4,7.4C15.4,7.4,15.4,7.3,15.4,7.4V5.5c0-3.1-2.5-5.5-5.6-5.5S4.3,2.5,4.3,5.5v2.1c-1.1,1.3-1.8,3-1.8,4.8
			c0,4.1,3.4,7.5,7.5,7.5s7.5-3.4,7.5-7.5C17.5,10.5,16.7,8.7,15.4,7.4L15.4,7.4z M9.9,1.7c2.2,0,3.9,1.7,3.9,3.9V6
			c-1.1-0.6-2.4-1-3.8-1C8.5,5,7.1,5.5,5.9,6.2V5.5C5.9,3.4,7.7,1.7,9.9,1.7L9.9,1.7z M10,18.3c-3.2,0-5.9-2.6-5.9-5.8
			S6.8,6.7,10,6.7s5.9,2.6,5.9,5.8S13.2,18.3,10,18.3L10,18.3z"/>
		<path class="st0" d="M10,9.9c-1.1,0-1.9,0.9-1.9,1.9c0,0.8,0.4,1.4,1.1,1.7v1.5c0,0.5,0.4,0.8,0.8,0.8c0.5,0,0.8-0.4,0.8-0.8v-1.5
			c0.6-0.3,1.1-1,1.1-1.7C11.9,10.8,11.1,9.9,10,9.9L10,9.9z M10,11.6c0.1,0,0.3,0.1,0.3,0.3c0,0.1-0.1,0.3-0.3,0.3
			c-0.1,0-0.3-0.1-0.3-0.3C9.7,11.7,9.9,11.6,10,11.6L10,11.6z"/>
	</g>
</g>
</svg>
