<?xml version="1.0" encoding="utf-8"?>
<!-- Generator: Adobe Illustrator 21.0.0, SVG Export Plug-In . SVG Version: 6.00 Build 0)  -->
<svg version="1.1" id="Слой_1" xmlns="http://www.w3.org/2000/svg" xmlns:xlink="http://www.w3.org/1999/xlink" x="0px" y="0px"
	 viewBox="0 0 20 16.8" style="enable-background:new 0 0 20 16.8;" xml:space="preserve">
<style type="text/css">
	.st0{fill:#2E4161;}
</style>
<g>
	<title>mi-gamers</title>
	<path class="st0" d="M10.4,9.8c1.2-0.9,2-2.4,2-3.9c0-2.7-2.2-4.9-4.9-4.9S2.6,3.1,2.6,5.8c0,1.6,0.7,3,2,3.9
		c-2.4,1.1-4.1,3.3-4.4,5.9h1.6c0.4-2.8,2.9-4.9,5.7-4.9s5.3,2.1,5.7,4.9h1.6C14.5,13.1,12.8,10.8,10.4,9.8L10.4,9.8z M7.5,9.1
		c-1.8,0-3.3-1.5-3.3-3.3s1.5-3.3,3.3-3.3s3.3,1.5,3.3,3.3C10.7,7.6,9.3,9.1,7.5,9.1z"/>
	<path class="st0" d="M17.1,9.6c0.7-0.8,1.1-1.9,1.1-2.9c0-2.9-2.6-5.2-5.5-4.9c0.2,0.2,0.4,0.6,0.6,0.9c0.2,0.2,0.2,0.5,0.3,0.7
		c1.9,0.3,2.9,1.7,2.9,3.3c0,1.1-0.6,2-1.3,2.6C15,9.5,14.9,9.7,14.9,10c0,0.4,0.2,0.7,0.7,0.8c1.5,0.3,2.6,1.6,2.6,3.2h1.6
		C19.8,12.1,18.7,10.4,17.1,9.6L17.1,9.6z"/>
</g>
</svg>
