<?xml version="1.0" encoding="utf-8"?>
<!-- Generator: Adobe Illustrator 21.0.0, SVG Export Plug-In . SVG Version: 6.00 Build 0)  -->
<svg version="1.1" id="Layer_1" xmlns="http://www.w3.org/2000/svg" xmlns:xlink="http://www.w3.org/1999/xlink" x="0px" y="0px"
	 viewBox="0 0 20 20" style="enable-background:new 0 0 20 20;" xml:space="preserve">
<style type="text/css">
	.st0{fill:#2E4161;}
</style>
<g>
	<g>
		<g>
			<path class="st0" d="M18.5,9.2h-2.3V2c0-0.7-0.5-1.3-1.3-1.3H2.1c-0.8,0-1.4,0.6-1.4,1.4v15.8c0,0.8,0.6,1.4,1.4,1.4h14.8
				c1.3,0,2.3-1,2.3-2.3V10C19.3,9.6,18.9,9.2,18.5,9.2z M2.3,2.3h12.3V10v6.9c0,0,0,0.1,0,0.1c0,0.2,0.1,0.5,0.1,0.7H2.3V2.3z
				 M17.7,16.9c0,0.4-0.3,0.8-0.8,0.8c0,0,0,0-0.1,0c-0.3,0-0.7-0.4-0.7-0.7c0,0,0,0,0-0.1v-6.2h1.5L17.7,16.9L17.7,16.9z"/>
			<path class="st0" d="M3.8,8.5h4.6c0.4,0,0.8-0.3,0.8-0.8V3.8c0-0.4-0.3-0.8-0.8-0.8H3.8c-0.4,0-0.8,0.3-0.8,0.8v3.9
				C3.1,8.1,3.4,8.5,3.8,8.5z M4.6,4.6h3.1v2.3H4.6V4.6z"/>
			<path class="st0" d="M13.1,10H3.8c-0.4,0-0.8,0.3-0.8,0.8s0.3,0.8,0.8,0.8h9.3c0.4,0,0.8-0.3,0.8-0.8C13.9,10.3,13.5,10,13.1,10z
				"/>
			<path class="st0" d="M6.9,12.3H3.8c-0.4,0-0.8,0.3-0.8,0.8s0.3,0.8,0.8,0.8h3.1c0.4,0,0.8-0.3,0.8-0.8
				C7.7,12.7,7.3,12.3,6.9,12.3z"/>
			<path class="st0" d="M13.1,3.8h-2.3c-0.4,0-0.8,0.3-0.8,0.8s0.3,0.8,0.8,0.8h2.3c0.4,0,0.8-0.3,0.8-0.8
				C13.9,4.2,13.5,3.8,13.1,3.8z"/>
			<path class="st0" d="M13.1,6.1h-2.3c-0.4,0-0.8,0.3-0.8,0.8c0,0.4,0.3,0.8,0.8,0.8h2.3c0.4,0,0.8-0.3,0.8-0.8
				C13.9,6.5,13.5,6.1,13.1,6.1z"/>
			<path class="st0" d="M13.1,12.3H10c-0.4,0-0.8,0.3-0.8,0.8s0.3,0.8,0.8,0.8h3.1c0.4,0,0.8-0.3,0.8-0.8
				C13.9,12.7,13.5,12.3,13.1,12.3z"/>
			<path class="st0" d="M6.9,14.6H3.8c-0.4,0-0.8,0.3-0.8,0.8s0.3,0.8,0.8,0.8h3.1c0.4,0,0.8-0.3,0.8-0.8C7.7,15,7.3,14.6,6.9,14.6z
				"/>
			<path class="st0" d="M13.1,14.6H10c-0.4,0-0.8,0.3-0.8,0.8s0.3,0.8,0.8,0.8h3.1c0.4,0,0.8-0.3,0.8-0.8
				C13.9,15,13.5,14.6,13.1,14.6z"/>
		</g>
	</g>
</g>
</svg>
