<?xml version="1.0" encoding="iso-8859-1"?>
<!-- Generator: Adobe Illustrator 19.0.0, SVG Export Plug-In . SVG Version: 6.00 Build 0)  -->
<svg version="1.1" id="Capa_1" xmlns="http://www.w3.org/2000/svg" xmlns:xlink="http://www.w3.org/1999/xlink" x="0px" y="0px"
	 viewBox="0 0 512 512" style="enable-background:new 0 0 512 512;" xml:space="preserve">
<path style="fill:#17ACE8;" d="M256,90c-90.901,0-166,74.099-166,165c0,90.899,75.099,165,166,165s165-74.101,165-165
	C421,164.099,346.901,90,256,90z"/>
<path style="fill:#1689FC;" d="M421,255c0,90.899-74.099,165-165,165V90C346.901,90,421,164.099,421,255z"/>
<path style="fill:#E1E4FB;" d="M301,195c-17.999,0-33.9,8.099-45,20.7c-11.1-12.601-27.001-20.7-45-20.7c-32.999,0-61,26.999-61,60
	c0,32.999,28.001,60,61,60c17.999,0,33.9-8.101,45-20.7c11.1,12.599,27.001,20.7,45,20.7c32.999,0,60-27.001,60-60
	C361,221.999,333.999,195,301,195z M211,285c-16.5,0-31-13.5-31-30s14.5-30,31-30s30,13.5,30,30S227.5,285,211,285z M301,285
	c-16.5,0-30-13.5-30-30s13.5-30,30-30s30,13.5,30,30S317.5,285,301,285z"/>
<path style="fill:#1DE8F1;" d="M512,255c0,140.7-115.3,257-256,257S0,395.7,0,255c0-67.8,27.599-132.601,75-180H52.5
	c-8.401,0-15-6.601-15-15c0-8.401,6.599-15,15-15h60c8.401,0,15,6.599,15,15v60c0,8.399-6.599,15-15,15s-15-6.601-15-15V94.799
	C54.901,136.8,30,194.7,30,255c0,124.2,101.8,227,226,227s226-102.8,226-227S380.2,30,256,30c-8.401,0-15-6.601-15-15
	c0-8.401,6.599-15,15-15C396.7,0,512,114.3,512,255z"/>
<path style="fill:#C5C9F7;" d="M301,195c-17.999,0-33.9,8.099-45,20.7v78.6c11.1,12.599,27.001,20.7,45,20.7
	c32.999,0,60-27.001,60-60C361,221.999,333.999,195,301,195z M301,285c-16.5,0-30-13.5-30-30s13.5-30,30-30s30,13.5,30,30
	S317.5,285,301,285z"/>
<path style="fill:#1BD9DE;" d="M512,255c0,140.7-115.3,257-256,257v-30c124.2,0,226-102.8,226-227S380.2,30,256,30V0
	C396.7,0,512,114.3,512,255z"/>
<g>
</g>
<g>
</g>
<g>
</g>
<g>
</g>
<g>
</g>
<g>
</g>
<g>
</g>
<g>
</g>
<g>
</g>
<g>
</g>
<g>
</g>
<g>
</g>
<g>
</g>
<g>
</g>
<g>
</g>
</svg>
