<svg id="Слой_1" data-name="Слой 1" xmlns="http://www.w3.org/2000/svg" viewBox="0 0 37.85 49.38"><defs><style>.cls-1{fill:#f4e331;}</style></defs><title>user-online</title><path class="cls-1" d="M33.31,35.06l-7.64-3.82a2.11,2.11,0,0,1-1.17-1.89v-2.7q.28-.34.57-.76a18.27,18.27,0,0,0,2.36-4.64,3.17,3.17,0,0,0,1.86-2.89v-3.2a3.18,3.18,0,0,0-.8-2.1V8.79a7.17,7.17,0,0,0-1.67-5.22C25.18,1.7,22.52.75,18.9.75S12.62,1.7,11,3.57A7.15,7.15,0,0,0,9.3,8.79v4.26a3.18,3.18,0,0,0-.8,2.1v3.2a3.17,3.17,0,0,0,1.2,2.48,16.74,16.74,0,0,0,2.8,5.79v2.65a2.11,2.11,0,0,1-1.1,1.86L4.26,35A7.21,7.21,0,0,0,.5,41.36v2.59c0,3.8,12,4.8,18.4,4.8s18.4-1,18.4-4.8V41.52a7.18,7.18,0,0,0-4-6.45Zm0,0"/></svg>